<svg xmlns="http://www.w3.org/2000/svg" width="256" height="256" viewBox="0 0 100 100"><rect width="100" height="100" rx="20" fill="#004ba8"></rect><path fill="#ffffff" d="M24.62 68.46L2.94 51.52Q2.79 50.63 2.79 50.11L2.79 50.11Q2.79 47.37 4.27 45.45L4.27 45.45L28.69 29.76Q31.65 30.28 33.31 32.09Q34.98 33.91 34.98 36.27L34.98 36.27Q34.98 37.98 33.94 39.83L33.94 39.83L11.37 50.26L30.69 58.99Q31.80 60.77 31.80 62.47L31.80 62.47Q31.80 64.98 29.76 66.72Q27.73 68.46 24.62 68.46L24.62 68.46ZM45.41 81.41Q43.78 81.41 41.64 80.45Q39.49 79.49 37.94 78.08Q36.38 76.68 36.38 75.42L36.38 75.42Q36.38 74.38 37.42 70.98Q38.46 67.58 39.79 63.36L39.79 63.36Q43.56 51.52 44.67 47.45L44.67 47.45Q45.56 44.27 47.85 34.87L47.85 34.87Q49.85 26.28 51.15 22.44Q52.44 18.59 53.92 18.59L53.92 18.59Q55.40 18.59 57.40 19.85Q59.40 21.10 60.88 22.77Q62.36 24.43 62.36 25.62L62.36 25.62Q62.36 26.95 61.54 29.91Q60.73 32.87 58.88 38.79L58.88 38.79Q56.51 46.26 54.88 52.04L54.88 52.04L51.85 63.36Q49.41 72.90 48.04 77.16Q46.67 81.41 45.41 81.41L45.41 81.41ZM72.27 68.91Q69.09 68.61 67.24 66.65Q65.39 64.69 65.39 61.88L65.39 61.88Q65.39 60.25 66.06 58.62L66.06 58.62L87.96 49.30L68.65 39.46Q67.46 37.75 67.46 35.90L67.46 35.90Q67.46 33.46 69.46 31.61Q71.46 29.76 74.57 29.47L74.57 29.47L96.84 46.19Q97.21 46.93 97.21 48.19L97.21 48.19Q97.21 50.33 96.18 52.26L96.18 52.26L72.27 68.91Z"></path></svg>